<svg width="18" height="18" viewBox="0 0 18 18" fill="none" xmlns="http://www.w3.org/2000/svg">
<path d="M15.7072 12.6262C15.2962 10.1726 14.1214 7.91129 12.3502 6.16425C11.9625 5.787 11.769 5.59875 11.3407 5.42475C10.9125 5.25 10.5442 5.25 9.80849 5.25H8.19149C7.45574 5.25 7.08749 5.25 6.65924 5.42475C6.23174 5.59875 6.03674 5.787 5.64974 6.16425C3.87858 7.91129 2.70381 10.1726 2.29274 12.6262C1.92749 14.8297 3.95999 16.5 6.23099 16.5H11.769C14.0407 16.5 16.074 14.8297 15.7065 12.6262H15.7072Z" stroke="#FDC141" stroke-width="1.125" stroke-linecap="round"/>
<path d="M5.44289 3.33225C5.28764 3.10725 5.06339 2.80125 5.52689 2.73225C6.00314 2.66025 6.49739 2.98575 6.98189 2.97975C7.41914 2.973 7.64189 2.77875 7.88189 2.50125C8.13389 2.2095 8.52389 1.5 9.00014 1.5C9.47639 1.5 9.86639 2.2095 10.1184 2.50125C10.3584 2.77875 10.5811 2.97375 11.0184 2.979C11.5029 2.9865 11.9971 2.66025 12.4734 2.7315C12.9369 2.80125 12.7126 3.1065 12.5574 3.3315L11.8584 4.35075C11.5584 4.78575 11.4091 5.00325 11.0956 5.127C10.7821 5.25075 10.3779 5.25 9.56864 5.25H8.43164C7.62164 5.25 7.21739 5.25 6.90464 5.127C6.59189 5.004 6.44189 4.785 6.14189 4.35L5.44289 3.33225Z" stroke="#FDC141" stroke-width="1.125"/>
</svg>
