<svg width="26" height="26" viewBox="0 0 26 26" fill="none" xmlns="http://www.w3.org/2000/svg">
<path d="M8.25067 22.7498V21.6664C7.76894 21.6664 7.35692 21.4949 7.01458 21.1519C6.67225 20.8088 6.50072 20.3975 6.5 19.9179V9.33377C6.5 8.85277 6.67153 8.44111 7.01458 8.09877C7.35764 7.75644 7.76931 7.58455 8.24958 7.58311H10.7293V4.95819C10.7293 4.7343 10.8124 4.5393 10.9785 4.37319C11.1446 4.20708 11.3393 4.12402 11.5624 4.12402H14.4376C14.6615 4.12402 14.8565 4.20708 15.0226 4.37319C15.1887 4.5393 15.2718 4.7343 15.2718 4.95819V7.58311H17.7504C18.2314 7.58311 18.6431 7.75463 18.9854 8.09769C19.3278 8.44075 19.4993 8.85241 19.5 9.33269V19.9169C19.5 20.3979 19.3285 20.8095 18.9854 21.1519C18.6424 21.4942 18.2307 21.6657 17.7504 21.6664V22.7498H16.6671V21.6664H9.33292V22.7498H8.25067ZM11.8127 7.58311H14.1873V5.20844H11.8127V7.58311ZM13 13.4169C13.9569 13.4169 14.8915 13.2948 15.8037 13.0507C16.7158 12.8066 17.5868 12.4411 18.4167 11.9544V9.33269C18.4167 9.13841 18.3542 8.9788 18.2292 8.85386C18.1043 8.72891 17.9447 8.66644 17.7504 8.66644H8.24958C8.05531 8.66644 7.89569 8.72891 7.77075 8.85386C7.64581 8.9788 7.58333 9.13877 7.58333 9.33377V11.9544C8.41389 12.4419 9.28525 12.8073 10.1974 13.0507C11.1096 13.2941 12.0438 13.4161 13 13.4169ZM12.4583 15.5835V14.4872C11.6032 14.4251 10.7691 14.2897 9.95583 14.0809C9.14261 13.8722 8.35178 13.5729 7.58333 13.1829V19.9169C7.58333 20.1111 7.64581 20.2707 7.77075 20.3957C7.89569 20.5206 8.05567 20.5831 8.25067 20.5831H17.7504C17.9447 20.5831 18.1043 20.5206 18.2292 20.3957C18.3542 20.2707 18.4167 20.1111 18.4167 19.9169V13.1829C17.6475 13.5729 16.8567 13.8722 16.0442 14.0809C15.2317 14.2897 14.3975 14.4251 13.5417 14.4872V15.5835H12.4583Z" fill="black"/>
</svg>
